# xmcd
#
# Track frame offsets:
#	150
#	22377
#	41936
#	63648
#	87047
#	113263
#	126109
#	146390
#	163278
#	190748
#	209447
#
# Disc length: 3181 seconds
# Revision: 0
# Processed by: cddbd v1.5.2PL0 Copyright (c) Steve Scherf et al.
# Submitted via: dBpowerAMP V12.0
#
DISCID=9e0c6b0b
DTITLE=Johnny Winter - Roots
DYEAR=2012
DGENRE=Blues
TTITLE0=T-Bone Shuffle
TTITLE1=Further On Up The Road
TTITLE2=Done Somebody Wrong
TTITLE3=Got My Mojo Workin
TTITLE4=Last Night
TTITLE5=Maybellene
TTITLE6=Bright Lights, Big City
TTITLE7=Honky Tonk
TTITLE8=Dust My Broom
TTITLE9=Short Fat Fannie
TTITLE10=Come Back Baby
EXTD=
EXTT0=
EXTT1=
EXTT2=
EXTT3=
EXTT4=
EXTT5=
EXTT6=
EXTT7=
EXTT8=
EXTT9=
EXTT10=
PLAYORDER=
